# xmcd CD database file
#
# Track frame offsets:
#	150
#	13773
#	36606
#	47188
#	61353
#	78592
#	93888
#	107547
#	120365
#	135155
#	159495
#	176127
#	194952
#	214360
#	229061
#	241807
#
# Disc length: 3445 seconds
#
# Revision: 0
# Processed by: cddbd v1.5.2PL0 Copyright (c) Steve Scherf et al.
# Submitted via: CDex 1.70beta2
#
DISCID=dd0d7310
DTITLE=Giora Feidman Sextett - Klezmer for Peace
DYEAR=2018
DGENRE=Jazz
TTITLE0=Kostakowsky Bulgar
TTITLE1=Isfahan Freilach
TTITLE2=Aglama! (Don't Cry!)
TTITLE3=Wedding Dance
TTITLE4=In the Deepness of the Soul
TTITLE5=Chasene Tantz
TTITLE6=Avinu Malkeinu
TTITLE7=El Ele (Hand in Hand)
TTITLE8=The Caress
TTITLE9=Kürdili Hicazkar Longa
TTITLE10=Lieberman Freilach
TTITLE11=Bishvili
TTITLE12=Chassidic Dance No.2
TTITLE13=Para los Consuegros
TTITLE14=Mysterious Admirer
TTITLE15=Serba la Booga
EXTD=YEAR: 2018
EXTT0=
EXTT1=
EXTT2=
EXTT3=
EXTT4=
EXTT5=
EXTT6=
EXTT7=
EXTT8=
EXTT9=
EXTT10=
EXTT11=
EXTT12=
EXTT13=
EXTT14=
EXTT15=
PLAYORDER=
